<svg width="26" height="27" viewBox="0 0 26 27" fill="none" xmlns="http://www.w3.org/2000/svg">
<path d="M12.625 24.5H4.5C3.83696 24.5 3.20107 24.2366 2.73223 23.7678C2.26339 23.2989 2 22.663 2 22V7C2 6.33696 2.26339 5.70107 2.73223 5.23223C3.20107 4.76339 3.83696 4.5 4.5 4.5H19.5C20.163 4.5 20.7989 4.76339 21.2678 5.23223C21.7366 5.70107 22 6.33696 22 7V12M17 2V7" stroke="#9EA2C4" stroke-width="2.5" stroke-linecap="round" stroke-linejoin="round"/>
<path d="M20.75 20.75V20.7625M7 2V7M2 12H22M23.4013 23.4013C23.9258 22.8768 24.2831 22.2087 24.4279 21.4812C24.5726 20.7537 24.4985 19.9997 24.2147 19.3144C23.9309 18.6291 23.4502 18.0434 22.8335 17.6313C22.2168 17.2192 21.4917 16.9992 20.75 16.9992C20.0083 16.9992 19.2832 17.2192 18.6665 17.6313C18.0498 18.0434 17.5691 18.6291 17.2853 19.3144C17.0015 19.9997 16.9274 20.7537 17.0721 21.4812C17.2169 22.2087 17.5742 22.8768 18.0987 23.4013C18.6212 23.9246 19.505 24.7075 20.75 25.75C22.0642 24.6375 22.9479 23.8546 23.4013 23.4013Z" stroke="#9EA2C4" stroke-width="2.5" stroke-linecap="round" stroke-linejoin="round"/>
</svg>
