<svg width="70" height="70" viewBox="0 0 70 70" fill="none" xmlns="http://www.w3.org/2000/svg">
<rect width="70" height="70" rx="25" fill="#E8863B"/>
<rect x="23" y="23" width="23" height="23" rx="5" fill="#E8863B" stroke="white" stroke-width="2"/>
<path d="M34.875 30C34.3475 30 33.9033 29.8553 33.5425 29.566C33.1808 29.2773 33 28.922 33 28.5C33 28.078 33.1808 27.7227 33.5425 27.434C33.9033 27.1447 34.3475 27 34.875 27C35.4025 27 35.8467 27.1447 36.2075 27.434C36.5683 27.7233 36.7492 28.0787 36.75 28.5C36.7508 28.9213 36.57 29.2767 36.2075 29.566C35.8467 29.8553 35.4025 30 34.875 30ZM33.625 43V32.77H36.125V43H33.625Z" fill="white"/>
</svg>
