<svg width="23" height="26" viewBox="0 0 23 26" fill="none" xmlns="http://www.w3.org/2000/svg">
<path d="M2.25 0C1.65326 0 1.08097 0.237053 0.659009 0.65901C0.237053 1.08097 0 1.65326 0 2.25V21.75C0 22.3467 0.237053 22.919 0.659009 23.341C1.08097 23.7629 1.65326 24 2.25 24H9.3855C8.32958 22.7204 7.68399 21.1521 7.533 19.5H5.25C5.05109 19.5 4.86032 19.421 4.71967 19.2803C4.57902 19.1397 4.5 18.9489 4.5 18.75C4.5 18.5511 4.57902 18.3603 4.71967 18.2197C4.86032 18.079 5.05109 18 5.25 18H7.533C7.70814 16.0787 8.5511 14.2795 9.9153 12.9153C11.2795 11.5511 13.0787 10.7081 15 10.533V2.25C15 1.65326 14.7629 1.08097 14.341 0.65901C13.919 0.237053 13.3467 0 12.75 0H2.25ZM22.5 18.75C22.5 20.5402 21.7888 22.2571 20.523 23.523C19.2571 24.7888 17.5402 25.5 15.75 25.5C13.9598 25.5 12.2429 24.7888 10.977 23.523C9.71116 22.2571 9 20.5402 9 18.75C9 16.9598 9.71116 15.2429 10.977 13.977C12.2429 12.7112 13.9598 12 15.75 12C17.5402 12 19.2571 12.7112 20.523 13.977C21.7888 15.2429 22.5 16.9598 22.5 18.75ZM15.75 15C15.5511 15 15.3603 15.079 15.2197 15.2197C15.079 15.3603 15 15.5511 15 15.75V18.75C15 18.9489 15.079 19.1397 15.2197 19.2803C15.3603 19.421 15.5511 19.5 15.75 19.5H18C18.1989 19.5 18.3897 19.421 18.5303 19.2803C18.671 19.1397 18.75 18.9489 18.75 18.75C18.75 18.5511 18.671 18.3603 18.5303 18.2197C18.3897 18.079 18.1989 18 18 18H16.5V15.75C16.5 15.5511 16.421 15.3603 16.2803 15.2197C16.1397 15.079 15.9489 15 15.75 15Z" fill="#9EA2C4"/>
</svg>
