<svg width="18" height="19" viewBox="0 0 18 19" fill="none" xmlns="http://www.w3.org/2000/svg">
<path d="M12.4387 0.5L12.4012 0.5375L12.4387 0.65C12.7637 1.5875 13.3762 2.815 14.5312 3.97C15.4933 4.93767 16.6683 5.66707 17.9624 6.1L9.39991 14.6625C8.82241 15.24 8.53366 15.5288 8.21491 15.7763C7.83991 16.0688 7.43366 16.32 7.00366 16.5262C6.63991 16.6987 6.25241 16.8275 5.47866 17.0862L1.39366 18.4487C1.20674 18.5108 1.00624 18.5196 0.814597 18.4742C0.622955 18.4288 0.44773 18.3309 0.30853 18.1916C0.169331 18.0523 0.0716494 17.877 0.026416 17.6853C-0.0188175 17.4936 -0.00981837 17.2931 0.0524072 17.1063L1.41366 13.0212C1.67116 12.2463 1.80116 11.8588 1.97366 11.4963C2.17866 11.0663 2.42991 10.6588 2.72366 10.2838C2.97116 9.96625 3.25991 9.6775 3.83616 9.1L12.4387 0.5Z" fill="#9EA2C4"/>
</svg>
