<svg width="26" height="26" viewBox="0 0 26 26" fill="none" xmlns="http://www.w3.org/2000/svg">
<path d="M20.1875 2.91875V1.28125C20.1875 1.03261 20.0887 0.794153 19.9129 0.618337C19.7371 0.442522 19.4986 0.34375 19.25 0.34375C19.0014 0.34375 18.7629 0.442522 18.5871 0.618337C18.4113 0.794153 18.3125 1.03261 18.3125 1.28125V2.84375H7.6875V1.28125C7.6875 1.03261 7.58873 0.794153 7.41291 0.618337C7.2371 0.442522 6.99864 0.34375 6.75 0.34375C6.50136 0.34375 6.2629 0.442522 6.08709 0.618337C5.91127 0.794153 5.8125 1.03261 5.8125 1.28125V2.91875C4.41916 3.1441 3.1513 3.85744 2.23539 4.93135C1.31947 6.00526 0.81515 7.3698 0.8125 8.78125V19.7188C0.8125 20.4985 0.966078 21.2706 1.26447 21.9909C1.56285 22.7113 2.00021 23.3658 2.55155 23.9172C3.66505 25.0307 5.17528 25.6562 6.75 25.6562H19.25C20.0297 25.6562 20.8018 25.5027 21.5222 25.2043C22.2426 24.9059 22.8971 24.4685 23.4484 23.9172C23.9998 23.3658 24.4371 22.7113 24.7355 21.9909C25.0339 21.2706 25.1875 20.4985 25.1875 19.7188V8.78125C25.1849 7.3698 24.6805 6.00526 23.7646 4.93135C22.8487 3.85744 21.5808 3.1441 20.1875 2.91875ZM23.3125 10.3438H2.6875V8.78125C2.68873 7.86888 2.99799 6.98364 3.56518 6.26899C4.13236 5.55434 4.92424 5.05213 5.8125 4.84375V6.28125C5.8125 6.52989 5.91127 6.76835 6.08709 6.94416C6.2629 7.11998 6.50136 7.21875 6.75 7.21875C6.99864 7.21875 7.2371 7.11998 7.41291 6.94416C7.58873 6.76835 7.6875 6.52989 7.6875 6.28125V4.71875H18.3125V6.28125C18.3125 6.52989 18.4113 6.76835 18.5871 6.94416C18.7629 7.11998 19.0014 7.21875 19.25 7.21875C19.4986 7.21875 19.7371 7.11998 19.9129 6.94416C20.0887 6.76835 20.1875 6.52989 20.1875 6.28125V4.84375C21.0758 5.05213 21.8676 5.55434 22.4348 6.26899C23.002 6.98364 23.3113 7.86888 23.3125 8.78125V10.3438Z" fill="#9EA2C4"/>
</svg>
